<svg xmlns="http://www.w3.org/2000/svg" viewBox="0 0 512 512" width="512" height="512">
  <!-- Outer dark background -->
  <rect width="512" height="512" fill="#1c1c1c"/>
  <!-- Black rounded square -->
  <rect x="55" y="35" width="402" height="442" rx="88" ry="88" fill="#0a0a0a"/>
  <!-- S letter in white -->
  <g transform="translate(110,422) scale(0.09511,-0.07775)">
    <path d="M1310 4055 c-371 -51 -684 -222 -879 -480 -183 -241 -249 -595 -175
-930 16 -72 99 -255 115 -255 5 0 9 -6 9 -13 0 -14 115 -131 165 -169 17 -12
32 -25 35 -28 3 -3 26 -18 52 -33 26 -15 53 -33 60 -40 16 -14 46 -31 173 -97
50 -26 119 -63 155 -82 36 -19 121 -64 190 -99 69 -35 127 -67 128 -71 2 -5 8
-8 13 -8 24 0 200 -120 250 -169 160 -161 155 -372 -11 -470 -36 -21 -57 -26
-106 -25 -76 2 -130 28 -180 89 -49 60 -56 119 -22 185 31 60 75 83 146 76 61
-5 66 4 24 56 -81 103 -221 190 -368 229 -110 30 -304 37 -412 15 -192 -39
-333 -140 -407 -291 -73 -150 -83 -345 -26 -521 57 -180 221 -383 404 -501
398 -258 963 -304 1415 -117 316 131 524 316 690 616 97 174 148 459 123 683
-46 403 -266 659 -756 873 -38 17 -135 56 -215 87 -271 104 -349 141 -428 205
-133 107 -205 238 -206 375 -1 94 23 154 86 217 59 59 117 81 215 82 70 0 90
-4 135 -27 67 -35 88 -64 95 -130 5 -47 2 -56 -21 -84 -18 -21 -40 -35 -64
-39 -41 -8 -118 9 -143 32 -24 22 -28 17 -22 -28 15 -126 88 -274 171 -349
203 -182 638 -185 837 -5 22 19 43 36 46 36 10 0 69 88 98 147 75 151 61 376
-35 566 -111 220 -337 381 -644 458 -188 48 -501 63 -710 34z" fill="white"/>
  </g>
</svg>
